<svg xmlns="http://www.w3.org/2000/svg" xmlns:xlink="http://www.w3.org/1999/xlink"><symbol viewBox="0 0 24 24" id="angle-double-down"><path d="M20 11.768q0 .188-.16.333l-7.472 6.755Q12.208 19 12 19t-.368-.145L4.16 12.1Q4 11.957 4 11.77q0-.188.16-.333l.802-.724q.16-.144.368-.144t.368.145L12 16.408l6.302-5.696q.16-.144.368-.144t.368.145l.802.725q.16.145.16.333zm0-5.566q0 .19-.16.333l-7.472 6.754q-.16.144-.368.144t-.368-.145L4.16 6.534Q4 6.39 4 6.202q0-.188.16-.333l.802-.725Q5.122 5 5.33 5t.368.145L12 10.84l6.302-5.695Q18.462 5 18.67 5t.368.145l.802.724q.16.144.16.332z"/></symbol><symbol viewBox="0 0 24 24" id="angle-double-left"><path d="M13.434 18.67q0 .208-.145.368l-.725.802q-.145.16-.333.16-.188 0-.333-.16l-6.755-7.472Q5 12.208 5 12t.145-.368L11.9 4.16q.144-.16.332-.16.188 0 .333.16l.724.802q.144.16.144.368t-.145.368L7.592 12l5.696 6.302q.144.16.144.368zm5.566 0q0 .208-.145.368l-.724.802q-.144.16-.332.16-.19 0-.333-.16l-6.754-7.472q-.144-.16-.144-.368t.145-.368l6.755-7.472q.144-.16.333-.16.188 0 .333.16l.725.802q.145.16.145.368t-.145.368L13.16 12l5.695 6.302q.145.16.145.368z"/></symbol><symbol viewBox="0 0 24 24" id="angle-double-right"><path d="M13.434 12q0 .208-.145.368L6.534 19.84q-.144.16-.333.16-.188 0-.333-.16l-.725-.802Q5 18.878 5 18.67t.145-.368L10.84 12 5.146 5.698Q5 5.538 5 5.33t.145-.368l.724-.802Q6.013 4 6.2 4q.19 0 .333.16l6.754 7.472q.144.16.144.368zM19 12q0 .208-.145.368L12.1 19.84q-.144.16-.332.16-.188 0-.333-.16l-.724-.802q-.144-.16-.144-.368t.145-.368L16.408 12 10.71 5.698q-.144-.16-.144-.368t.145-.368l.725-.802q.145-.16.333-.16.188 0 .333.16l6.755 7.472q.145.16.145.368z"/></symbol><symbol viewBox="0 0 24 24" id="angle-double-up"><path d="M20 17.798q0 .188-.16.333l-.802.725q-.16.145-.368.145t-.368-.145L12 13.16l-6.302 5.695Q5.538 19 5.33 19t-.368-.145l-.802-.724Q4 17.987 4 17.8q0-.19.16-.333l7.472-6.754q.16-.144.368-.144t.368.145l7.472 6.755q.16.144.16.333zm0-5.566q0 .188-.16.333l-.802.724q-.16.144-.368.144t-.368-.145L12 7.592 5.698 13.29q-.16.144-.368.144t-.368-.145l-.802-.725Q4 12.42 4 12.232q0-.188.16-.333l7.472-6.755Q11.792 5 12 5t.368.145L19.84 11.9q.16.144.16.332z"/></symbol><symbol viewBox="0 0 24 24" id="angle-down"><path d="M19 9.14q0 .18-.14.316l-6.538 6.407Q12.182 16 12 16t-.322-.137L5.14 9.456Q5 9.32 5 9.14q0-.178.14-.316l.7-.687Q5.98 8 6.165 8q.182 0 .322.137L12 13.54l5.514-5.403q.14-.137.322-.137.183 0 .323.137l.7.687q.14.138.14.316z"/></symbol><symbol viewBox="0 0 24 24" id="angle-left"><path d="M16 6.164q0 .182-.137.322L10.46 12l5.403 5.514q.137.14.137.322 0 .183-.137.323l-.687.7q-.138.14-.316.14-.18 0-.316-.14l-6.407-6.538Q8 12.182 8 12t.137-.322l6.407-6.538Q14.68 5 14.86 5q.178 0 .316.14l.687.7q.137.14.137.324z"/></symbol><symbol viewBox="0 0 24 24" id="angle-right"><path d="M16 12q0 .182-.137.322L9.456 18.86Q9.32 19 9.14 19q-.178 0-.316-.14l-.687-.7Q8 18.02 8 17.835q0-.182.137-.322L13.54 12 8.138 6.486Q8 6.346 8 6.164q0-.183.137-.323l.687-.7Q8.962 5 9.14 5q.18 0 .316.14l6.407 6.538q.137.14.137.322z"/></symbol><symbol viewBox="0 0 24 24" id="angle-up"><path d="M19 14.86q0 .178-.14.316l-.7.687q-.14.137-.324.137-.182 0-.322-.137L12 10.46l-5.514 5.403q-.14.137-.322.137-.183 0-.323-.137l-.7-.687Q5 15.038 5 14.86q0-.18.14-.316l6.538-6.407Q11.818 8 12 8t.322.137l6.538 6.407q.14.137.14.316z"/></symbol></svg>