<?xml version="1.0" encoding="utf-8"?>
<!-- Generator: Adobe Illustrator 19.0.0, SVG Export Plug-In . SVG Version: 6.00 Build 0)  -->
<svg version="1.1" id="Слой_1" xmlns="http://www.w3.org/2000/svg" xmlns:xlink="http://www.w3.org/1999/xlink" x="0px" y="0px"
	 viewBox="-467 269 24 24" style="enable-background:new -467 269 24 24;" xml:space="preserve">
<path d="M-450.5,272c-1.7,0-3.4,0.8-4.5,2.1c-1.1-1.3-2.8-2.1-4.5-2.1c-3.1,0-5.5,2.4-5.5,5.5c0,3.8,3.4,6.9,8.5,11.5l1.5,1.3
	l1.5-1.3c5.1-4.7,8.5-7.8,8.5-11.5C-445,274.4-447.4,272-450.5,272z M-454.9,287.5l-0.1,0.1l-0.1-0.1c-4.8-4.3-7.9-7.2-7.9-10
	c0-2,1.5-3.5,3.5-3.5c1.5,0,3,1,3.6,2.4h1.9c0.5-1.4,2-2.4,3.6-2.4c2,0,3.5,1.5,3.5,3.5C-447,280.4-450.1,283.2-454.9,287.5z"/>
</svg>
