<svg xmlns="http://www.w3.org/2000/svg" xmlns:xlink="http://www.w3.org/1999/xlink"><symbol viewBox="0 0 20 20" id="chevron-down" xmlns="http://www.w3.org/2000/svg"><path d="M17.418 6.109c.272-.268.709-.268.979 0s.271.701 0 .969l-7.908 7.83a.697.697 0 0 1-.979 0l-7.908-7.83c-.27-.268-.27-.701 0-.969s.709-.268.979 0L10 13.25l7.418-7.141z"/></symbol><symbol viewBox="0 0 20 20" id="chevron-left" xmlns="http://www.w3.org/2000/svg"><path d="M13.891 17.418c.268.272.268.709 0 .979s-.701.271-.969 0l-7.83-7.908a.697.697 0 0 1 0-.979l7.83-7.908c.268-.27.701-.27.969 0s.268.709 0 .979L6.75 10l7.141 7.418z"/></symbol><symbol viewBox="0 0 20 20" id="chevron-right" xmlns="http://www.w3.org/2000/svg"><path d="M13.25 10L6.109 2.58a.697.697 0 0 1 0-.979.68.68 0 0 1 .969 0l7.83 7.908a.697.697 0 0 1 0 .979l-7.83 7.908c-.268.271-.701.27-.969 0s-.268-.707 0-.979L13.25 10z"/></symbol><symbol viewBox="0 0 20 20" id="chevron-up" xmlns="http://www.w3.org/2000/svg"><path d="M2.582 13.891c-.272.268-.709.268-.979 0s-.271-.701 0-.969l7.908-7.83a.697.697 0 0 1 .979 0l7.908 7.83c.27.268.27.701 0 .969s-.709.268-.978 0L10 6.75l-7.418 7.141z"/></symbol><symbol viewBox="0 0 24 24" id="close" xmlns="http://www.w3.org/2000/svg"><path d="M18.984 6.422L13.406 12l5.578 5.578-1.406 1.406L12 13.406l-5.578 5.578-1.406-1.406L10.594 12 5.016 6.422l1.406-1.406L12 10.594l5.578-5.578z"/></symbol><symbol viewBox="-467 269 24 24" id="favorite" xmlns="http://www.w3.org/2000/svg"><path d="M-455 290.4l-1.5-1.3c-5.1-4.7-8.5-7.8-8.5-11.5 0-3.1 2.4-5.5 5.5-5.5 1.7 0 3.4.8 4.5 2.1 1.1-1.3 2.8-2.1 4.5-2.1 3.1 0 5.5 2.4 5.5 5.5 0 3.8-3.4 6.9-8.5 11.5l-1.5 1.3z"/></symbol><symbol viewBox="-467 269 24 24" id="favorite_border" xmlns="http://www.w3.org/2000/svg"><path d="M-450.5 272c-1.7 0-3.4.8-4.5 2.1-1.1-1.3-2.8-2.1-4.5-2.1-3.1 0-5.5 2.4-5.5 5.5 0 3.8 3.4 6.9 8.5 11.5l1.5 1.3 1.5-1.3c5.1-4.7 8.5-7.8 8.5-11.5 0-3.1-2.4-5.5-5.5-5.5zm-4.4 15.5l-.1.1-.1-.1c-4.8-4.3-7.9-7.2-7.9-10 0-2 1.5-3.5 3.5-3.5 1.5 0 3 1 3.6 2.4h1.9c.5-1.4 2-2.4 3.6-2.4 2 0 3.5 1.5 3.5 3.5-.1 2.9-3.2 5.7-8 10z"/></symbol><symbol viewBox="0 0 24 24" id="menu" xmlns="http://www.w3.org/2000/svg"><path d="M3 18h18v-2H3v2zm0-5h18v-2H3v2zm0-7v2h18V6H3z"/></symbol><symbol viewBox="0 0 24 24" id="more_horiz" xmlns="http://www.w3.org/2000/svg"><path d="M12 9.984c1.078 0 2.016.938 2.016 2.016s-.938 2.016-2.016 2.016S9.984 13.078 9.984 12 10.922 9.984 12 9.984zm6 0c1.078 0 2.016.938 2.016 2.016s-.938 2.016-2.016 2.016-2.016-.938-2.016-2.016.938-2.016 2.016-2.016zm-12 0c1.078 0 2.016.938 2.016 2.016S7.078 14.016 6 14.016 3.984 13.078 3.984 12 4.922 9.984 6 9.984z"/></symbol><symbol viewBox="0 0 24 24" id="more_vert" xmlns="http://www.w3.org/2000/svg"><path d="M12 15.984c1.078 0 2.016.938 2.016 2.016s-.938 2.016-2.016 2.016S9.984 19.078 9.984 18s.938-2.016 2.016-2.016zm0-6c1.078 0 2.016.938 2.016 2.016s-.938 2.016-2.016 2.016S9.984 13.078 9.984 12 10.922 9.984 12 9.984zm0-1.968c-1.078 0-2.016-.938-2.016-2.016S10.922 3.984 12 3.984s2.016.938 2.016 2.016S13.078 8.016 12 8.016z"/></symbol><symbol viewBox="0 0 32 32" id="search" xmlns="http://www.w3.org/2000/svg"><path d="M19.427 20.427a8.5 8.5 0 1 1 2-2l5.585 5.585c.55.55.546 1.431 0 1.976l-.023.023a1.398 1.398 0 0 1-1.976 0l-5.585-5.585zM14.5 20a6.5 6.5 0 1 0 0-13 6.5 6.5 0 0 0 0 13z"/></symbol><symbol viewBox="0 0 32 32" id="spinner" xmlns="http://www.w3.org/2000/svg"><path d="M16 0C7.163 0 0 7.163 0 16s7.163 16 16 16 16-7.163 16-16S24.837 0 16 0zm0 8a8 8 0 1 1 0 16 8 8 0 0 1 0-16zm9.546 17.546c-2.55 2.55-5.94 3.954-9.546 3.954s-6.996-1.404-9.546-3.954S2.5 19.606 2.5 16c0-3.606 1.404-6.996 3.954-9.546l2.121 2.121c-4.094 4.094-4.094 10.755 0 14.849 1.983 1.983 4.62 3.075 7.425 3.075s5.441-1.092 7.425-3.075c4.094-4.094 4.094-10.755 0-14.849l2.121-2.121c2.55 2.55 3.954 5.94 3.954 9.546s-1.404 6.996-3.954 9.546z"/></symbol></svg>