<svg xmlns="http://www.w3.org/2000/svg" id="Capa_1" viewBox="0 0 512 512"><style>.st6{fill:#fff}</style><path fill="#f7e018" d="M272 274.8c-37.5 0-67.9-30.4-67.9-67.9 0-31.4-25.6-57-57-57-37.5 0-67.9-30.4-67.9-67.9s30.4-67.9 67.9-67.9c106.3 0 192.8 86.5 192.8 192.8 0 37.5-30.4 67.9-67.9 67.9z"/><path fill="#1988c6" d="M243.8 394.9c0-37.5 30.4-67.9 67.9-67.9 31.4 0 57-25.6 57-57 0-37.5 30.4-67.9 67.9-67.9s67.9 30.4 67.9 67.9c0 106.3-86.5 192.8-192.8 192.8-37.5 0-67.9-30.4-67.9-67.9z"/><path fill="#f16524" d="M133.5 200.3c31.3 20.7 39.9 62.8 19.2 94.1-17.3 26.2-10.1 61.6 16.1 79 31.3 20.7 39.9 62.8 19.2 94.1s-62.8 39.9-94.1 19.2C5.2 427.9-19.2 308.1 39.4 219.5c20.7-31.3 62.8-39.9 94.1-19.2z"/><path fill="#e5cd1a" d="M234.1 206.9c0-31.4-25.6-57-57-57-37.5 0-67.9-30.4-67.9-67.9 0-33.7 24.5-61.7 56.7-67-6.2-.6-12.5-.9-18.8-.9-37.5 0-67.9 30.4-67.9 67.9s30.4 67.9 67.9 67.9c31.4 0 57 25.6 57 57 0 37.5 30.4 67.9 67.9 67.9 5.2 0 10.2-.6 15-1.7-30.3-6.8-52.9-33.8-52.9-66.2z"/><path fill="#1c73ba" d="M273.8 394.9c0-37.5 30.4-67.9 67.9-67.9 31.4 0 57-25.6 57-57 0-32.3 22.6-59.4 52.9-66.2-4.8-1.1-9.8-1.7-15-1.7-37.5 0-67.9 30.4-67.9 67.9 0 31.4-25.6 57-57 57-37.5 0-67.9 30.4-67.9 67.9s30.4 67.9 67.9 67.9c6.4 0 12.6-.3 18.8-.9-32.1-5.3-56.7-33.3-56.7-67z"/><path fill="#e54c21" d="M123.9 486.6C35.2 427.9 10.8 308.1 69.4 219.5c10.1-15.2 25.2-25.1 41.7-28.8-26.8-6.1-55.7 4.5-71.7 28.8C-19.2 308.2 5.2 428 93.9 486.6c16.1 10.6 35 13.5 52.4 9.6-7.8-1.8-15.4-5-22.4-9.6z"/><path d="M347.4 206.9c0-110.4-89.8-200.3-200.3-200.3-41.6 0-75.4 33.8-75.4 75.4s33.8 75.4 75.4 75.4c27.3 0 49.5 22.2 49.5 49.5 0 41.6 33.8 75.4 75.4 75.4 41.6 0 75.4-33.8 75.4-75.4zm-135.8 0c0-35.6-28.9-64.5-64.5-64.5-33.3 0-60.4-27.1-60.4-60.4s27.1-60.4 60.4-60.4c102.2 0 185.3 83.1 185.3 185.3 0 33.3-27.1 60.4-60.4 60.4s-60.4-27.1-60.4-60.4z"/><path d="M120.7 82h-15c0 22.9 18.6 41.4 41.4 41.4 17.7 0 34.7 5.5 49 15.9l8.8-12.1c-16.9-12.3-36.9-18.8-57.8-18.8-14.5.1-26.4-11.8-26.4-26.4zM307.4 162.2c-12.8-45.8-44.8-84.1-87.7-105l-6.6 13.5c39.1 19 68.2 53.8 79.8 95.5l14.5-4zM190.9 62.1c4.5 1.4 9.1 3 13.5 4.8l5.7-13.9c-4.8-2-9.8-3.8-14.8-5.3l-4.4 14.4zM185.2 45c-5.1-1.2-10.3-2.2-15.5-2.9l-2 14.9c4.7.6 9.4 1.5 14.1 2.6l3.4-14.6z" class="st6"/><path d="M436.6 194.7c-41.6 0-75.4 33.8-75.4 75.4 0 27.3-22.2 49.5-49.5 49.5-41.6 0-75.4 33.8-75.4 75.4s33.8 75.4 75.4 75.4c110.4 0 200.3-89.8 200.3-200.3 0-41.6-33.8-75.4-75.4-75.4zM311.7 455.3c-33.3 0-60.4-27.1-60.4-60.4s27.1-60.4 60.4-60.4c35.6 0 64.5-28.9 64.5-64.5 0-33.3 27.1-60.4 60.4-60.4S497 236.7 497 270c0 102.2-83.1 185.3-185.3 185.3z"/><path d="M407.5 312.4l14.1 5.1c1.8-5.1 3.3-10.3 4.3-15.6l-14.7-2.8c-.9 4.6-2.1 9-3.7 13.3zM396.8 332.7l12.2 8.7c3.1-4.4 5.9-9.1 8.3-13.9l-13.4-6.6c-2 4.1-4.4 8-7.1 11.8z"/><path d="M363.3 326.9c-14.2 12.9-32.5 19.9-51.6 19.9-26.5 0-48.1 21.6-48.1 48.1h15c0-18.2 14.8-33.1 33.1-33.1 22.8 0 44.7-8.5 61.6-23.8l-10-11.1z" class="st6"/><path d="M365.6 418.5l5.1 14.1c4.9-1.8 9.8-3.8 14.5-6l-6.4-13.6c-4.3 2.1-8.7 3.9-13.2 5.5zM342.7 424.9l2.9 14.7c5.1-1 10.2-2.3 15.2-3.8l-4.3-14.4c-4.5 1.5-9.2 2.6-13.8 3.5zM319 427.8l.7 15c5.2-.2 10.5-.7 15.6-1.4l-2-14.9c-4.8.7-9.5 1.1-14.3 1.3z"/><g><path d="M481.9 254.1l-14.1 5c1.2 3.5 1.9 7.2 1.9 11 0 32.2-9.7 63.3-28 89.7l12.3 8.5c20.1-29 30.7-63 30.7-98.3 0-5.4-1-10.8-2.8-15.9zM454 225.3c-5.5-2.2-11.4-3.3-17.4-3.3v15c4.1 0 8.1.8 11.9 2.2l5.5-13.9zM464.2 251.8l12.5-8.3c-3.3-5-7.4-9.2-12.3-12.7l-8.7 12.2c3.4 2.5 6.2 5.4 8.5 8.8z" class="st6"/></g><path d="M172.9 367c-22.8-15-29-45.8-14-68.6 11.1-16.8 15-36.9 11-56.6-4-19.7-15.5-36.7-32.3-47.8-16.8-11.1-36.9-15-56.6-11-19.7 4-36.7 15.5-47.8 32.3-60.9 92.1-35.5 216.6 56.6 277.5 12.5 8.3 26.8 12.5 41.4 12.5 5.1 0 10.2-.5 15.2-1.5 19.7-4 36.7-15.5 47.8-32.3s15-36.9 11-56.6c-4-19.8-15.5-36.8-32.3-47.9zm8.8 96.2c-8.9 13.5-22.5 22.6-38.3 25.9-15.8 3.2-31.9.1-45.4-8.8C12.8 424-10.7 308.8 45.7 223.6c8.9-13.5 22.5-22.6 38.3-25.9 4.1-.8 8.1-1.2 12.2-1.2 11.7 0 23.2 3.4 33.2 10 13.5 8.9 22.6 22.5 25.9 38.3 3.2 15.8.1 31.9-8.8 45.4-19.6 29.7-11.4 69.7 18.2 89.4 13.5 8.9 22.6 22.5 25.9 38.3 3.1 15.8 0 31.9-8.9 45.3z"/><g><path d="M116.8 452C100.1 441 86 427.1 75 410.8l-12.4 8.4c12.2 18 27.6 33.2 45.9 45.3 6.9 4.5 14.7 6.9 22.8 6.9 2.8 0 5.6-.3 8.4-.9l-3-14.7c-7 1.5-14.1.1-19.9-3.8zM121.9 251.6c.4 1.8.5 3.6.5 5.4 0 5.1-1.5 10.2-4.4 14.5-10.7 16.2-16.3 34.8-16.3 54.1 0 6.6.7 13.3 2 19.9l14.7-3c-1.1-5.6-1.7-11.3-1.7-16.9 0-16.3 4.8-32.1 13.8-45.8 4.5-6.8 6.9-14.7 6.9-22.8 0-2.8-.3-5.6-.8-8.4-.3-1.3-.6-2.6-1-3.9l-14.3 4.4c.3.8.5 1.7.6 2.5zM118 242.1l12.4-8.4c-3-4.5-6.9-8.3-11.5-11.4-.6-.4-1.1-.7-1.7-1.1l-7.7 12.9c.4.2.7.5 1.1.7 3 2 5.4 4.4 7.4 7.3zM102.3 231.2l3.6-14.6c-5.9-1.5-12.1-1.6-18.2-.3l3 14.7c3.9-.8 7.9-.7 11.6.2z" class="st6"/></g></svg>