<svg xmlns="http://www.w3.org/2000/svg" xmlns:xlink="http://www.w3.org/1999/xlink"><symbol viewBox="0 0 24 24" id="angle-double-down"><path d="M20 11.768q0 .188-.16.333l-7.472 6.754Q12.208 19 12 19t-.368-.145L4.16 12.101Q4 11.956 4 11.768q0-.188.16-.333l.802-.724q.16-.145.368-.145t.368.145L12 16.407l6.302-5.696q.16-.145.368-.145t.368.145l.802.724q.16.145.16.333zm0-5.566q0 .189-.16.333l-7.472 6.754q-.16.145-.368.145t-.368-.145L4.16 6.535Q4 6.391 4 6.202q0-.188.16-.333l.802-.724Q5.122 5 5.33 5t.368.145L12 10.84l6.302-5.696Q18.462 5 18.67 5t.368.145l.802.724q.16.145.16.333z"/></symbol><symbol viewBox="0 0 24 24" id="angle-double-left"><path d="M13.434 18.67q0 .208-.145.368l-.724.802q-.145.16-.333.16-.188 0-.333-.16l-6.754-7.472Q5 12.208 5 12t.145-.368l6.754-7.472q.145-.16.333-.16.188 0 .333.16l.724.802q.145.16.145.368t-.145.368L7.593 12l5.696 6.302q.145.16.145.368zm5.566 0q0 .208-.145.368l-.724.802q-.145.16-.333.16-.189 0-.333-.16l-6.754-7.472q-.145-.16-.145-.368t.145-.368l6.754-7.472q.144-.16.333-.16.188 0 .333.16l.724.802q.145.16.145.368t-.145.368L13.16 12l5.696 6.302q.145.16.145.368z"/></symbol><symbol viewBox="0 0 24 24" id="angle-double-right"><path d="M13.434 12q0 .208-.145.368L6.535 19.84q-.144.16-.333.16-.188 0-.333-.16l-.724-.802Q5 18.878 5 18.67t.145-.368L10.84 12 5.145 5.698Q5 5.538 5 5.33t.145-.368l.724-.802Q6.014 4 6.202 4q.189 0 .333.16l6.754 7.472q.145.16.145.368zM19 12q0 .208-.145.368l-6.754 7.472q-.145.16-.333.16-.188 0-.333-.16l-.724-.802q-.145-.16-.145-.368t.145-.368L16.407 12l-5.696-6.302q-.145-.16-.145-.368t.145-.368l.724-.802q.145-.16.333-.16.188 0 .333.16l6.754 7.472q.145.16.145.368z"/></symbol><symbol viewBox="0 0 24 24" id="angle-double-up"><path d="M20 17.798q0 .188-.16.333l-.802.724q-.16.145-.368.145t-.368-.145L12 13.16l-6.302 5.696Q5.538 19 5.33 19t-.368-.145l-.802-.724Q4 17.986 4 17.798q0-.189.16-.333l7.472-6.754q.16-.145.368-.145t.368.145l7.472 6.754q.16.144.16.333zm0-5.566q0 .188-.16.333l-.802.724q-.16.145-.368.145t-.368-.145L12 7.593l-6.302 5.696q-.16.145-.368.145t-.368-.145l-.802-.724Q4 12.42 4 12.232q0-.188.16-.333l7.472-6.754Q11.792 5 12 5t.368.145l7.472 6.754q.16.145.16.333z"/></symbol><symbol viewBox="0 0 24 24" id="angle-down"><path d="M19 9.14q0 .179-.14.316l-6.538 6.407Q12.182 16 12 16t-.322-.137L5.14 9.456Q5 9.32 5 9.14q0-.178.14-.316l.701-.687Q5.981 8 6.164 8q.182 0 .322.137L12 13.541l5.514-5.404q.14-.137.322-.137.183 0 .323.137l.7.687q.141.138.141.316z"/></symbol><symbol viewBox="0 0 24 24" id="angle-left"><path d="M16 6.164q0 .182-.137.322L10.459 12l5.404 5.514q.137.14.137.322 0 .183-.137.323l-.687.7q-.138.141-.316.141-.179 0-.316-.14l-6.407-6.538Q8 12.182 8 12t.137-.322l6.407-6.538Q14.68 5 14.86 5q.178 0 .316.14l.687.701q.137.14.137.323z"/></symbol><symbol viewBox="0 0 24 24" id="angle-right"><path d="M16 12q0 .182-.137.322L9.456 18.86Q9.32 19 9.14 19q-.178 0-.316-.14l-.687-.701Q8 18.019 8 17.836q0-.182.137-.322L13.541 12 8.137 6.486Q8 6.346 8 6.164q0-.183.137-.323l.687-.7Q8.962 5 9.14 5q.179 0 .316.14l6.407 6.538q.137.14.137.322z"/></symbol><symbol viewBox="0 0 24 24" id="angle-up"><path d="M19 14.86q0 .178-.14.316l-.701.687q-.14.137-.323.137-.182 0-.322-.137L12 10.459l-5.514 5.404q-.14.137-.322.137-.183 0-.323-.137l-.7-.687Q5 15.038 5 14.86q0-.179.14-.316l6.538-6.407Q11.818 8 12 8t.322.137l6.538 6.407q.14.137.14.316z"/></symbol></svg>