<?xml version="1.0" encoding="UTF-8" standalone="no"?>
<!-- Generated by IcoMoon.io -->

<svg xmlns:dc="http://purl.org/dc/elements/1.1/" xmlns:cc="http://creativecommons.org/ns#" xmlns:rdf="http://www.w3.org/1999/02/22-rdf-syntax-ns#" xmlns:svg="http://www.w3.org/2000/svg" xmlns="http://www.w3.org/2000/svg" xmlns:sodipodi="http://sodipodi.sourceforge.net/DTD/sodipodi-0.dtd" xmlns:inkscape="http://www.inkscape.org/namespaces/inkscape" version="1.1" width="24" height="24" viewBox="0 0 24 24" id="svg2" inkscape:version="0.91 r13725" sodipodi:docname="angle-double-up.svg">
  <metadata id="metadata10">
    <rdf:RDF>
      <cc:Work rdf:about="">
        <dc:format>image/svg+xml</dc:format>
        <dc:type rdf:resource="http://purl.org/dc/dcmitype/StillImage" />
        <dc:title></dc:title>
      </cc:Work>
    </rdf:RDF>
  </metadata>
  <defs id="defs8" />
  <sodipodi:namedview pagecolor="#ffffff" bordercolor="#666666" borderopacity="1" objecttolerance="10" gridtolerance="10" guidetolerance="10" inkscape:pageopacity="0" inkscape:pageshadow="2" inkscape:window-width="1366" inkscape:window-height="715" id="namedview6" showgrid="false" inkscape:zoom="8.4285714" inkscape:cx="9" inkscape:cy="14" inkscape:window-x="-8" inkscape:window-y="-8" inkscape:window-maximized="1" inkscape:current-layer="svg2" />
  <path d="m 20,17.797774 q 0,0.188311 -0.160082,0.333024 l -0.801437,0.72449 Q 18.878399,19 18.670087,19 18.461775,19 18.301693,18.855288 L 12,13.158627 5.6983068,18.855288 Q 5.5382247,19 5.3299128,19 5.1216008,19 4.9615187,18.855288 L 4.1600821,18.130798 Q 4,17.986085 4,17.797774 4,17.609462 4.1600821,17.46475 L 11.631606,10.710575 Q 11.791688,10.565863 12,10.565863 q 0.208312,0 0.368394,0.144712 l 7.471524,6.754175 Q 20,17.609462 20,17.797774 Z m 0,-5.565863 q 0,0.188312 -0.160082,0.333024 l -0.801437,0.72449 q -0.160082,0.144712 -0.368394,0.144712 -0.208312,0 -0.368394,-0.144712 L 12,7.592764 5.6983068,13.289425 q -0.1600821,0.144712 -0.368394,0.144712 -0.208312,0 -0.3683941,-0.144712 L 4.1600821,12.564935 Q 4,12.420223 4,12.231911 4,12.043599 4.1600821,11.898887 L 11.631606,5.1447124 Q 11.791688,5 12,5 q 0.208312,0 0.368394,0.1447124 l 7.471524,6.7541746 Q 20,12.043599 20,12.231911 Z" id="path4" inkscape:connector-curvature="0" />
</svg>
