<?xml version="1.0" encoding="UTF-8" standalone="no"?>
<!-- Generated by IcoMoon.io -->

<svg xmlns:dc="http://purl.org/dc/elements/1.1/" xmlns:cc="http://creativecommons.org/ns#" xmlns:rdf="http://www.w3.org/1999/02/22-rdf-syntax-ns#" xmlns:svg="http://www.w3.org/2000/svg" xmlns="http://www.w3.org/2000/svg" xmlns:sodipodi="http://sodipodi.sourceforge.net/DTD/sodipodi-0.dtd" xmlns:inkscape="http://www.inkscape.org/namespaces/inkscape" version="1.1" width="24" height="24" viewBox="0 0 24 24" id="svg2" inkscape:version="0.91 r13725" sodipodi:docname="angle-double-right.svg">
  <metadata id="metadata10">
    <rdf:RDF>
      <cc:Work rdf:about="">
        <dc:format>image/svg+xml</dc:format>
        <dc:type rdf:resource="http://purl.org/dc/dcmitype/StillImage" />
        <dc:title></dc:title>
      </cc:Work>
    </rdf:RDF>
  </metadata>
  <defs id="defs8" />
  <sodipodi:namedview pagecolor="#ffffff" bordercolor="#666666" borderopacity="1" objecttolerance="10" gridtolerance="10" guidetolerance="10" inkscape:pageopacity="0" inkscape:pageshadow="2" inkscape:window-width="1366" inkscape:window-height="715" id="namedview6" showgrid="false" inkscape:zoom="8.4285714" inkscape:cx="8" inkscape:cy="14" inkscape:window-x="-8" inkscape:window-y="-8" inkscape:window-maximized="1" inkscape:current-layer="svg2" />
  <path d="m 13.434137,12 q 0,0.208312 -0.144712,0.368394 L 6.5352505,19.839918 Q 6.390538,20 6.2022263,20 6.0139147,20 5.8692022,19.839918 L 5.1447124,19.038481 Q 5,18.878399 5,18.670087 5,18.461775 5.1447124,18.301693 L 10.841373,12 5.1447124,5.6983068 Q 5,5.5382247 5,5.3299128 5,5.1216008 5.1447124,4.9615187 L 5.8692022,4.1600821 Q 6.0139147,4 6.2022263,4 6.390538,4 6.5352505,4.1600821 L 13.289425,11.631606 Q 13.434137,11.791688 13.434137,12 Z M 19,12 q 0,0.208312 -0.144712,0.368394 l -6.754175,7.471524 Q 11.956401,20 11.768089,20 11.579777,20 11.435065,19.839918 l -0.72449,-0.801437 q -0.144712,-0.160082 -0.144712,-0.368394 0,-0.208312 0.144712,-0.368394 L 16.407236,12 10.710575,5.6983068 q -0.144712,-0.1600821 -0.144712,-0.368394 0,-0.208312 0.144712,-0.3683941 l 0.72449,-0.8014366 Q 11.579777,4 11.768089,4 q 0.188312,0 0.333024,0.1600821 l 6.754175,7.4715239 Q 19,11.791688 19,12 Z" id="path4" inkscape:connector-curvature="0" />
</svg>
