<?xml version="1.0" encoding="UTF-8" standalone="no"?>
<!-- Generated by IcoMoon.io -->

<svg xmlns:dc="http://purl.org/dc/elements/1.1/" xmlns:cc="http://creativecommons.org/ns#" xmlns:rdf="http://www.w3.org/1999/02/22-rdf-syntax-ns#" xmlns:svg="http://www.w3.org/2000/svg" xmlns="http://www.w3.org/2000/svg" xmlns:sodipodi="http://sodipodi.sourceforge.net/DTD/sodipodi-0.dtd" xmlns:inkscape="http://www.inkscape.org/namespaces/inkscape" version="1.1" width="24" height="24" viewBox="0 0 24 24" id="svg2" inkscape:version="0.91 r13725" sodipodi:docname="angle-double-down.svg">
  <metadata id="metadata10">
    <rdf:RDF>
      <cc:Work rdf:about="">
        <dc:format>image/svg+xml</dc:format>
        <dc:type rdf:resource="http://purl.org/dc/dcmitype/StillImage" />
        <dc:title></dc:title>
      </cc:Work>
    </rdf:RDF>
  </metadata>
  <defs id="defs8" />
  <sodipodi:namedview pagecolor="#ffffff" bordercolor="#666666" borderopacity="1" objecttolerance="10" gridtolerance="10" guidetolerance="10" inkscape:pageopacity="0" inkscape:pageshadow="2" inkscape:window-width="1366" inkscape:window-height="715" id="namedview6" showgrid="false" inkscape:zoom="8.4285714" inkscape:cx="9" inkscape:cy="14" inkscape:window-x="-8" inkscape:window-y="-8" inkscape:window-maximized="1" inkscape:current-layer="svg2" />
  <path d="m 20,11.768089 q 0,0.188311 -0.160082,0.333024 l -7.471524,6.754174 Q 12.208312,19 12,19 11.791688,19 11.631606,18.855287 L 4.1600821,12.101113 Q 4,11.9564 4,11.768089 4,11.579778 4.1600821,11.435065 l 0.8014366,-0.72449 q 0.1600821,-0.144712 0.3683941,-0.144712 0.2083119,0 0.368394,0.144712 L 12,16.407236 18.301693,10.710575 q 0.160082,-0.144712 0.368394,-0.144712 0.208312,0 0.368394,0.144712 l 0.801437,0.72449 Q 20,11.579778 20,11.768089 Z M 20,6.2022264 Q 20,6.390538 19.839918,6.5352505 L 12.368394,13.289425 Q 12.208312,13.434137 12,13.434137 q -0.208312,0 -0.368394,-0.144712 L 4.1600821,6.5352505 Q 4,6.390538 4,6.2022264 4,6.0139147 4.1600821,5.8692022 L 4.9615187,5.1447124 Q 5.1216008,5 5.3299128,5 5.5382247,5 5.6983068,5.1447124 L 12,10.841373 18.301693,5.1447124 Q 18.461775,5 18.670087,5 q 0.208312,0 0.368394,0.1447124 l 0.801437,0.7244898 Q 20,6.0139147 20,6.2022264 Z" id="path4" inkscape:connector-curvature="0" />
</svg>
