<?xml version="1.0" encoding="UTF-8" standalone="no"?>
<!-- Generated by IcoMoon.io -->

<svg xmlns:dc="http://purl.org/dc/elements/1.1/" xmlns:cc="http://creativecommons.org/ns#" xmlns:rdf="http://www.w3.org/1999/02/22-rdf-syntax-ns#" xmlns:svg="http://www.w3.org/2000/svg" xmlns="http://www.w3.org/2000/svg" xmlns:sodipodi="http://sodipodi.sourceforge.net/DTD/sodipodi-0.dtd" xmlns:inkscape="http://www.inkscape.org/namespaces/inkscape" version="1.1" width="24" height="24" viewBox="0 0 24 24" id="svg2" inkscape:version="0.91 r13725" sodipodi:docname="angle-double-left.svg">
  <metadata id="metadata10">
    <rdf:RDF>
      <cc:Work rdf:about="">
        <dc:format>image/svg+xml</dc:format>
        <dc:type rdf:resource="http://purl.org/dc/dcmitype/StillImage" />
        <dc:title></dc:title>
      </cc:Work>
    </rdf:RDF>
  </metadata>
  <defs id="defs8" />
  <sodipodi:namedview pagecolor="#ffffff" bordercolor="#666666" borderopacity="1" objecttolerance="10" gridtolerance="10" guidetolerance="10" inkscape:pageopacity="0" inkscape:pageshadow="2" inkscape:window-width="1366" inkscape:window-height="715" id="namedview6" showgrid="false" inkscape:zoom="8.4285714" inkscape:cx="8.5" inkscape:cy="14" inkscape:window-x="-8" inkscape:window-y="-8" inkscape:window-maximized="1" inkscape:current-layer="svg2" />
  <path d="m 13.434137,18.670087 q 0,0.208312 -0.144712,0.368394 l -0.72449,0.801437 Q 12.420223,20 12.231911,20 12.043599,20 11.898887,19.839918 L 5.1447124,12.368394 Q 5,12.208312 5,12 5,11.791688 5.1447124,11.631606 L 11.898887,4.1600821 Q 12.043599,4 12.231911,4 q 0.188312,0 0.333024,0.1600821 l 0.72449,0.8014366 q 0.144712,0.1600821 0.144712,0.3683941 0,0.2083119 -0.144712,0.368394 L 7.5927644,12 13.289425,18.301693 q 0.144712,0.160082 0.144712,0.368394 z m 5.565863,0 q 0,0.208312 -0.144712,0.368394 l -0.72449,0.801437 Q 17.986085,20 17.797774,20 17.609462,20 17.46475,19.839918 L 10.710575,12.368394 Q 10.565863,12.208312 10.565863,12 q 0,-0.208312 0.144712,-0.368394 L 17.46475,4.1600821 Q 17.609462,4 17.797774,4 q 0.188311,0 0.333024,0.1600821 l 0.72449,0.8014366 Q 19,5.1216008 19,5.3299128 19,5.5382247 18.855288,5.6983068 L 13.158627,12 18.855288,18.301693 Q 19,18.461775 19,18.670087 Z" id="path4" inkscape:connector-curvature="0" />
</svg>
