<?xml version="1.0" encoding="UTF-8" standalone="no"?>
<!-- Created with Inkscape (http://www.inkscape.org/) -->

<svg
   xmlns:dc="http://purl.org/dc/elements/1.1/"
   xmlns:cc="http://creativecommons.org/ns#"
   xmlns:rdf="http://www.w3.org/1999/02/22-rdf-syntax-ns#"
   xmlns:svg="http://www.w3.org/2000/svg"
   xmlns="http://www.w3.org/2000/svg"
   xmlns:sodipodi="http://sodipodi.sourceforge.net/DTD/sodipodi-0.dtd"
   xmlns:inkscape="http://www.inkscape.org/namespaces/inkscape"
   width="172"
   height="26"
   viewBox="0 0 172 26"
   id="svg2"
   version="1.1"
   inkscape:version="0.91 r13725"
   sodipodi:docname="marmelad-logo.svg">
  <defs
     id="defs4" />
  <sodipodi:namedview
     id="base"
     pagecolor="#ffffff"
     bordercolor="#666666"
     borderopacity="1.0"
     inkscape:pageopacity="0.0"
     inkscape:pageshadow="2"
     inkscape:zoom="3.959798"
     inkscape:cx="51.225511"
     inkscape:cy="1.798611"
     inkscape:document-units="px"
     inkscape:current-layer="layer1"
     showgrid="false"
     units="px"
     inkscape:window-width="1440"
     inkscape:window-height="847"
     inkscape:window-x="-8"
     inkscape:window-y="-8"
     inkscape:window-maximized="1" />
  <metadata
     id="metadata7">
    <rdf:RDF>
      <cc:Work
         rdf:about="">
        <dc:format>image/svg+xml</dc:format>
        <dc:type
           rdf:resource="http://purl.org/dc/dcmitype/StillImage" />
        <dc:title></dc:title>
      </cc:Work>
    </rdf:RDF>
  </metadata>
  <g
     inkscape:label="Layer 1"
     inkscape:groupmode="layer"
     id="layer1"
     transform="translate(0,-1026.3622)">
    <g
       transform="scale(1.0012216,0.99877989)"
       style="font-style:normal;font-weight:normal;font-size:39.93486786px;line-height:125%;font-family:sans-serif;letter-spacing:0px;word-spacing:0px;fill:#009688;fill-opacity:1;stroke:none;stroke-width:1px;stroke-linecap:butt;stroke-linejoin:miter;stroke-opacity:1"
       id="text3336">
      <path
         d="m 2.8079204,1027.6161 7.4682886,0 q 1.598954,8.4237 2.515428,14.4881 l 0.643482,-4.0364 q 0.389989,-2.3595 0.838476,-4.6019 l 1.150468,-5.8498 7.624284,0 2.963916,26.0317 -5.849835,0 -1.579455,-17.9005 -3.646396,17.9005 -3.997387,0 -3.8218918,-17.9395 -1.5209569,17.9395 -5.5963413,0 2.8079204,-26.0317 z"
         style="font-style:normal;font-variant:normal;font-weight:normal;font-stretch:normal;font-family:'Tw Cen MT Condensed Extra Bold';-inkscape-font-specification:'Tw Cen MT Condensed Extra Bold, ';fill:#009688;fill-opacity:1"
         id="path3341" />
      <path
         d="m 48.924112,1053.6478 -6.142326,0 -0.994471,-4.3483 -6.239824,0 -1.03347,4.3483 -6.025329,0 6.902804,-26.0317 6.629812,0 6.902804,26.0317 z m -8.267765,-9.0282 q -1.325963,-5.8109 -1.988944,-11.0562 l -0.078,0 q -0.70198,5.4013 -1.969444,11.0562 l 4.036386,0 z"
         style="font-style:normal;font-variant:normal;font-weight:normal;font-stretch:normal;font-family:'Tw Cen MT Condensed Extra Bold';-inkscape-font-specification:'Tw Cen MT Condensed Extra Bold, ';fill:#009688;fill-opacity:1"
         id="path3343" />
      <path
         d="m 51.927025,1027.6161 6.883305,0 q 4.172882,0 6.590813,2.1449 2.417932,2.1449 2.417932,5.8303 0,1.8915 -0.916474,3.6659 -0.916474,1.755 -2.671424,2.652 l 4.718866,11.7386 -6.239823,0 -4.777365,-11.8556 -0.0975,0 0,11.8556 -5.908333,0 0,-26.0317 z m 5.908333,5.0308 0,6.1813 q 3.919389,-0.078 3.919389,-2.7494 0,-1.8134 -0.916474,-2.5934 -0.896975,-0.78 -3.002915,-0.8385 z"
         style="font-style:normal;font-variant:normal;font-weight:normal;font-stretch:normal;font-family:'Tw Cen MT Condensed Extra Bold';-inkscape-font-specification:'Tw Cen MT Condensed Extra Bold, ';fill:#009688;fill-opacity:1"
         id="path3345" />
      <path
         d="m 74.175901,1027.6161 7.468289,0 q 1.598954,8.4237 2.515428,14.4881 l 0.643482,-4.0364 q 0.389989,-2.3595 0.838476,-4.6019 l 1.150468,-5.8498 7.624284,0 2.963916,26.0317 -5.849835,0 -1.579455,-17.9005 -3.646396,17.9005 -3.997387,0 -3.821892,-17.9395 -1.520957,17.9395 -5.596341,0 2.80792,-26.0317 z"
         style="font-style:normal;font-variant:normal;font-weight:normal;font-stretch:normal;font-family:'Tw Cen MT Condensed Extra Bold';-inkscape-font-specification:'Tw Cen MT Condensed Extra Bold, ';fill:#009688;fill-opacity:1"
         id="path3347" />
      <path
         d="m 102.07961,1027.6161 11.95316,0 0,5.5378 -6.04483,0 0,4.7969 5.24535,0 0,5.4013 -5.24535,0 0,4.7384 6.08383,0 0,5.5573 -11.99216,0 0,-26.0317 z"
         style="font-style:normal;font-variant:normal;font-weight:normal;font-stretch:normal;font-family:'Tw Cen MT Condensed Extra Bold';-inkscape-font-specification:'Tw Cen MT Condensed Extra Bold, ';fill:#009688;fill-opacity:1"
         id="path3349" />
      <path
         d="m 118.77113,1027.6161 5.90834,0 0,20.0064 4.67986,0 0,6.0253 -10.5882,0 0,-26.0317 z"
         style="font-style:normal;font-variant:normal;font-weight:normal;font-stretch:normal;font-family:'Tw Cen MT Condensed Extra Bold';-inkscape-font-specification:'Tw Cen MT Condensed Extra Bold, ';fill:#009688;fill-opacity:1"
         id="path3351" />
      <path
         d="m 151.5692,1053.6478 -6.14232,0 -0.99447,-4.3483 -6.23983,0 -1.03347,4.3483 -6.02533,0 6.90281,-26.0317 6.62981,0 6.9028,26.0317 z m -8.26776,-9.0282 q -1.32596,-5.8109 -1.98894,-11.0562 l -0.078,0 q -0.70198,5.4013 -1.96945,11.0562 l 4.03639,0 z"
         style="font-style:normal;font-variant:normal;font-weight:normal;font-stretch:normal;font-family:'Tw Cen MT Condensed Extra Bold';-inkscape-font-specification:'Tw Cen MT Condensed Extra Bold, ';fill:#009688;fill-opacity:1"
         id="path3353" />
      <path
         d="m 154.57211,1027.6161 5.51835,0 q 5.73283,0 8.71625,3.2759 2.98342,3.2564 2.98342,9.5352 0,4.7579 -1.48196,7.6828 -1.46246,2.9249 -4.11439,4.2314 -2.63242,1.3064 -5.83033,1.3064 l -5.79134,0 0,-26.0317 z m 5.90834,5.5378 0,14.9366 q 2.69092,-0.234 3.80239,-1.8915 1.11147,-1.6769 1.11147,-5.4988 0,-2.2619 -0.38999,-3.8219 -0.38999,-1.5795 -1.16997,-2.4179 -0.76048,-0.858 -1.50146,-1.053 -0.72148,-0.195 -1.85244,-0.2535 z"
         style="font-style:normal;font-variant:normal;font-weight:normal;font-stretch:normal;font-family:'Tw Cen MT Condensed Extra Bold';-inkscape-font-specification:'Tw Cen MT Condensed Extra Bold, ';fill:#009688;fill-opacity:1"
         id="path3355" />
    </g>
  </g>
</svg>
